<svg width="1440" height="900" viewBox="0 0 1440 900" fill="none" xmlns="http://www.w3.org/2000/svg">
  <defs>
    <linearGradient id="bg" x1="180" y1="120" x2="1260" y2="760" gradientUnits="userSpaceOnUse">
      <stop stop-color="#F8FAFF"/>
      <stop offset="1" stop-color="#EEF3FB"/>
    </linearGradient>
    <radialGradient id="orbA" cx="0" cy="0" r="1" gradientUnits="userSpaceOnUse" gradientTransform="translate(320 210) rotate(49.8) scale(320 240)">
      <stop stop-color="#A2D2FF" stop-opacity="0.7"/>
      <stop offset="1" stop-color="#A2D2FF" stop-opacity="0"/>
    </radialGradient>
    <radialGradient id="orbB" cx="0" cy="0" r="1" gradientUnits="userSpaceOnUse" gradientTransform="translate(1140 190) rotate(34) scale(280 220)">
      <stop stop-color="#C8B4FF" stop-opacity="0.6"/>
      <stop offset="1" stop-color="#C8B4FF" stop-opacity="0"/>
    </radialGradient>
    <radialGradient id="orbC" cx="0" cy="0" r="1" gradientUnits="userSpaceOnUse" gradientTransform="translate(980 690) rotate(11) scale(340 260)">
      <stop stop-color="#BCE7FF" stop-opacity="0.55"/>
      <stop offset="1" stop-color="#BCE7FF" stop-opacity="0"/>
    </radialGradient>
    <linearGradient id="accent" x1="0" y1="0" x2="1" y2="1">
      <stop stop-color="#0071E3"/>
      <stop offset="1" stop-color="#38A0FF"/>
    </linearGradient>
    <linearGradient id="panel" x1="0" y1="0" x2="0" y2="1">
      <stop stop-color="rgba(255,255,255,0.86)"/>
      <stop offset="1" stop-color="rgba(255,255,255,0.68)"/>
    </linearGradient>
    <filter id="blur" x="-100" y="-100" width="1640" height="1100" filterUnits="userSpaceOnUse" color-interpolation-filters="sRGB">
      <feGaussianBlur stdDeviation="40"/>
    </filter>
    <filter id="shadow" x="0" y="0" width="1440" height="900" filterUnits="userSpaceOnUse" color-interpolation-filters="sRGB">
      <feDropShadow dx="0" dy="20" stdDeviation="40" flood-color="#637492" flood-opacity="0.12"/>
    </filter>
  </defs>

  <rect width="1440" height="900" rx="0" fill="url(#bg)"/>
  <g filter="url(#blur)">
    <circle cx="320" cy="210" r="260" fill="url(#orbA)"/>
    <circle cx="1140" cy="190" r="230" fill="url(#orbB)"/>
    <circle cx="980" cy="690" r="280" fill="url(#orbC)"/>
  </g>

  <rect x="48" y="40" width="1344" height="820" rx="34" fill="rgba(255,255,255,0.36)"/>

  <g filter="url(#shadow)">
    <rect x="72" y="64" width="284" height="772" rx="30" fill="white" fill-opacity="0.78"/>
    <rect x="384" y="64" width="980" height="164" rx="30" fill="white" fill-opacity="0.78"/>
    <rect x="384" y="252" width="980" height="110" rx="28" fill="white" fill-opacity="0.78"/>
    <rect x="384" y="386" width="620" height="420" rx="30" fill="white" fill-opacity="0.78"/>
    <rect x="1028" y="386" width="336" height="196" rx="30" fill="white" fill-opacity="0.78"/>
    <rect x="1028" y="606" width="336" height="200" rx="30" fill="white" fill-opacity="0.78"/>
  </g>

  <text x="116" y="126" fill="#7D8597" font-size="14" font-family="Segoe UI, PingFang SC, sans-serif">民族舞智能评估系统</text>
  <text x="116" y="164" fill="#1D1D1F" font-size="34" font-weight="700" font-family="Segoe UI, PingFang SC, sans-serif">Dance Console</text>

  <g>
    <rect x="104" y="210" width="220" height="52" rx="18" fill="url(#accent)"/>
    <circle cx="132" cy="236" r="8" fill="white" fill-opacity="0.95"/>
    <text x="152" y="242" fill="white" font-size="18" font-weight="600" font-family="Segoe UI, PingFang SC, sans-serif">控制台</text>

    <rect x="104" y="278" width="220" height="52" rx="18" fill="#EEF2F7"/>
    <text x="152" y="310" fill="#2A3345" font-size="18" font-weight="600" font-family="Segoe UI, PingFang SC, sans-serif">评分看板</text>

    <rect x="104" y="346" width="220" height="52" rx="18" fill="#EEF2F7"/>
    <text x="152" y="378" fill="#2A3345" font-size="18" font-weight="600" font-family="Segoe UI, PingFang SC, sans-serif">历史记录</text>

    <rect x="104" y="414" width="220" height="52" rx="18" fill="#EEF2F7"/>
    <text x="152" y="446" fill="#2A3345" font-size="18" font-weight="600" font-family="Segoe UI, PingFang SC, sans-serif">设备监控</text>
  </g>

  <text x="424" y="120" fill="#8A90A2" font-size="14" font-family="Segoe UI, PingFang SC, sans-serif">Apple Style Dashboard</text>
  <text x="424" y="166" fill="#1D1D1F" font-size="42" font-weight="700" font-family="Segoe UI, PingFang SC, sans-serif">DanceGuard-AI 网页工作台</text>
  <text x="424" y="198" fill="#657089" font-size="18" font-family="Segoe UI, PingFang SC, sans-serif">虚拟摄像头负责展示，Rebocap 骨骼流负责实时评分与历史分析。</text>

  <g>
    <rect x="1120" y="116" width="110" height="44" rx="22" fill="url(#accent)"/>
    <text x="1152" y="144" fill="white" font-size="18" font-weight="600" font-family="Segoe UI, PingFang SC, sans-serif">开始</text>
    <rect x="1242" y="116" width="102" height="44" rx="22" fill="#E8ECF2"/>
    <text x="1270" y="144" fill="#273142" font-size="18" font-weight="600" font-family="Segoe UI, PingFang SC, sans-serif">停止</text>
  </g>

  <g>
    <rect x="408" y="276" width="140" height="62" rx="20" fill="#F4F6FB"/>
    <text x="432" y="300" fill="#8A90A2" font-size="13" font-family="Segoe UI, PingFang SC, sans-serif">舞种</text>
    <text x="432" y="326" fill="#1D1D1F" font-size="18" font-weight="600" font-family="Segoe UI, PingFang SC, sans-serif">黑走马</text>

    <rect x="568" y="276" width="180" height="62" rx="20" fill="#F4F6FB"/>
    <text x="592" y="300" fill="#8A90A2" font-size="13" font-family="Segoe UI, PingFang SC, sans-serif">视频设备</text>
    <text x="592" y="326" fill="#1D1D1F" font-size="18" font-weight="600" font-family="Segoe UI, PingFang SC, sans-serif">OBS Virtual Camera</text>

    <rect x="768" y="276" width="160" height="62" rx="20" fill="#F4F6FB"/>
    <text x="792" y="300" fill="#8A90A2" font-size="13" font-family="Segoe UI, PingFang SC, sans-serif">VMC</text>
    <text x="792" y="326" fill="#1D1D1F" font-size="18" font-weight="600" font-family="Segoe UI, PingFang SC, sans-serif">0.0.0.0:39539</text>

    <rect x="948" y="276" width="150" height="62" rx="20" fill="#F4F6FB"/>
    <text x="972" y="300" fill="#8A90A2" font-size="13" font-family="Segoe UI, PingFang SC, sans-serif">计时</text>
    <text x="972" y="326" fill="#1D1D1F" font-size="24" font-weight="700" font-family="Segoe UI, PingFang SC, sans-serif">00:42</text>

    <rect x="1118" y="276" width="222" height="62" rx="20" fill="#F4F6FB"/>
    <text x="1142" y="300" fill="#8A90A2" font-size="13" font-family="Segoe UI, PingFang SC, sans-serif">视频状态</text>
    <rect x="1142" y="310" width="140" height="22" rx="11" fill="#DCF6E8"/>
    <text x="1174" y="326" fill="#17734B" font-size="13" font-weight="700" font-family="Segoe UI, PingFang SC, sans-serif">视频已连接</text>
  </g>

  <g>
    <text x="420" y="430" fill="#8A90A2" font-size="14" font-family="Segoe UI, PingFang SC, sans-serif">Live View</text>
    <text x="420" y="462" fill="#1D1D1F" font-size="28" font-weight="700" font-family="Segoe UI, PingFang SC, sans-serif">实时画面</text>
    <rect x="420" y="486" width="548" height="286" rx="28" fill="#DCE6F5"/>
    <rect x="444" y="510" width="500" height="238" rx="24" fill="#0F172A" fill-opacity="0.86"/>
    <rect x="628" y="526" width="130" height="46" rx="23" fill="url(#accent)"/>
    <text x="646" y="556" fill="white" font-size="26" font-weight="800" font-family="Segoe UI, PingFang SC, sans-serif">PERFECT!</text>
    <text x="474" y="710" fill="#FFFFFF" fill-opacity="0.88" font-size="16" font-family="Segoe UI, PingFang SC, sans-serif">视频展示来自 OBS，动作评分来自 Rebocap 骨骼流。</text>
  </g>

  <g>
    <text x="1056" y="430" fill="#8A90A2" font-size="14" font-family="Segoe UI, PingFang SC, sans-serif">Live Score</text>
    <text x="1056" y="462" fill="#1D1D1F" font-size="28" font-weight="700" font-family="Segoe UI, PingFang SC, sans-serif">评分总览</text>
    <text x="1056" y="536" fill="#1D1D1F" font-size="86" font-weight="700" font-family="Segoe UI, PingFang SC, sans-serif">92</text>
    <rect x="1056" y="556" width="280" height="18" rx="9" fill="#E7EBF2"/>
    <rect x="1056" y="556" width="246" height="18" rx="9" fill="url(#accent)"/>
    <rect x="1056" y="594" width="132" height="56" rx="18" fill="#F4F6FB"/>
    <text x="1074" y="618" fill="#8A90A2" font-size="12" font-family="Segoe UI, PingFang SC, sans-serif">当前舞种</text>
    <text x="1074" y="642" fill="#1D1D1F" font-size="18" font-weight="600" font-family="Segoe UI, PingFang SC, sans-serif">黑走马</text>
    <rect x="1204" y="594" width="132" height="56" rx="18" fill="#F4F6FB"/>
    <text x="1222" y="618" fill="#8A90A2" font-size="12" font-family="Segoe UI, PingFang SC, sans-serif">最弱关节</text>
    <text x="1222" y="642" fill="#1D1D1F" font-size="18" font-weight="600" font-family="Segoe UI, PingFang SC, sans-serif">LeftHand</text>
  </g>

  <g>
    <text x="1056" y="650" fill="#8A90A2" font-size="14" font-family="Segoe UI, PingFang SC, sans-serif">History & Status</text>
    <text x="1056" y="682" fill="#1D1D1F" font-size="28" font-weight="700" font-family="Segoe UI, PingFang SC, sans-serif">记录与设备</text>
    <rect x="1056" y="706" width="280" height="34" rx="17" fill="#F4F6FB"/>
    <text x="1078" y="728" fill="#273142" font-size="14" font-family="Segoe UI, PingFang SC, sans-serif">历史详情 / 离线导入 / 模型中心 / 设备诊断</text>
    <rect x="1056" y="752" width="280" height="18" rx="9" fill="#EEF2F7"/>
    <rect x="1056" y="782" width="210" height="12" rx="6" fill="#EEF2F7"/>
    <rect x="1056" y="806" width="250" height="12" rx="6" fill="#EEF2F7"/>
  </g>
</svg>
